<mxfile host="app.diagrams.net" agent="Mozilla/5.0 (Windows NT 10.0; Win64; x64; rv:142.0) Gecko/20100101 Firefox/142.0" version="28.1.1">
  <diagram name="Page-1" id="DwgkpjFlHMKlsgaYxxUS">
    <mxGraphModel dx="1188" dy="633" grid="1" gridSize="10" guides="1" tooltips="1" connect="1" arrows="1" fold="1" page="1" pageScale="1" pageWidth="827" pageHeight="1169" math="0" shadow="0">
      <root>
        <mxCell id="0" />
        <mxCell id="1" parent="0" />
        <mxCell id="OFsOXVbewKaNGLtt7Mi5-25" style="edgeStyle=orthogonalEdgeStyle;rounded=0;orthogonalLoop=1;jettySize=auto;html=1;endArrow=none;endFill=0;" edge="1" parent="1" source="OFsOXVbewKaNGLtt7Mi5-1" target="OFsOXVbewKaNGLtt7Mi5-16">
          <mxGeometry relative="1" as="geometry" />
        </mxCell>
        <mxCell id="OFsOXVbewKaNGLtt7Mi5-1" value="Recepcionista" style="shape=umlActor;verticalLabelPosition=bottom;verticalAlign=top;html=1;outlineConnect=0;" vertex="1" parent="1">
          <mxGeometry x="80" y="360" width="30" height="60" as="geometry" />
        </mxCell>
        <mxCell id="OFsOXVbewKaNGLtt7Mi5-15" value="" style="rounded=1;whiteSpace=wrap;html=1;fillColor=none;" vertex="1" parent="1">
          <mxGeometry x="184.5" y="160" width="531" height="490" as="geometry" />
        </mxCell>
        <mxCell id="OFsOXVbewKaNGLtt7Mi5-16" value="Inserir CPF" style="ellipse;whiteSpace=wrap;html=1;" vertex="1" parent="1">
          <mxGeometry x="220" y="350" width="120" height="80" as="geometry" />
        </mxCell>
        <mxCell id="OFsOXVbewKaNGLtt7Mi5-17" value="Verificar cadastro do tutor" style="ellipse;whiteSpace=wrap;html=1;" vertex="1" parent="1">
          <mxGeometry x="410" y="180" width="120" height="80" as="geometry" />
        </mxCell>
        <mxCell id="OFsOXVbewKaNGLtt7Mi5-18" value="Consultar Pets" style="ellipse;whiteSpace=wrap;html=1;" vertex="1" parent="1">
          <mxGeometry x="414" y="350" width="120" height="80" as="geometry" />
        </mxCell>
        <mxCell id="OFsOXVbewKaNGLtt7Mi5-19" value="Registrar Pets" style="ellipse;whiteSpace=wrap;html=1;" vertex="1" parent="1">
          <mxGeometry x="580" y="505" width="120" height="80" as="geometry" />
        </mxCell>
        <mxCell id="OFsOXVbewKaNGLtt7Mi5-20" value="Alterar dados do pet" style="ellipse;whiteSpace=wrap;html=1;" vertex="1" parent="1">
          <mxGeometry x="570" y="220" width="120" height="80" as="geometry" />
        </mxCell>
        <mxCell id="OFsOXVbewKaNGLtt7Mi5-21" value="Registrar entrada" style="ellipse;whiteSpace=wrap;html=1;" vertex="1" parent="1">
          <mxGeometry x="220" y="560" width="120" height="80" as="geometry" />
        </mxCell>
        <mxCell id="OFsOXVbewKaNGLtt7Mi5-29" style="edgeStyle=orthogonalEdgeStyle;rounded=0;orthogonalLoop=1;jettySize=auto;html=1;endArrow=none;endFill=0;exitX=0.5;exitY=0;exitDx=0;exitDy=0;dashed=1;startArrow=classic;startFill=0;" edge="1" parent="1" source="OFsOXVbewKaNGLtt7Mi5-16" target="OFsOXVbewKaNGLtt7Mi5-17">
          <mxGeometry relative="1" as="geometry">
            <mxPoint x="330" y="310" as="sourcePoint" />
            <mxPoint x="440" y="310" as="targetPoint" />
          </mxGeometry>
        </mxCell>
        <mxCell id="OFsOXVbewKaNGLtt7Mi5-30" value="&amp;lt;&amp;lt;inclui&amp;gt;&amp;gt;" style="text;html=1;align=center;verticalAlign=middle;whiteSpace=wrap;rounded=0;" vertex="1" parent="1">
          <mxGeometry x="370" y="270" width="60" height="30" as="geometry" />
        </mxCell>
        <mxCell id="OFsOXVbewKaNGLtt7Mi5-31" style="edgeStyle=orthogonalEdgeStyle;rounded=0;orthogonalLoop=1;jettySize=auto;html=1;endArrow=classic;endFill=0;dashed=1;startArrow=none;startFill=0;" edge="1" parent="1" source="OFsOXVbewKaNGLtt7Mi5-18" target="OFsOXVbewKaNGLtt7Mi5-16">
          <mxGeometry relative="1" as="geometry">
            <mxPoint x="470" y="280" as="sourcePoint" />
            <mxPoint x="620" y="190" as="targetPoint" />
          </mxGeometry>
        </mxCell>
        <mxCell id="OFsOXVbewKaNGLtt7Mi5-33" value="&amp;lt;&amp;lt;inclui&amp;gt;&amp;gt;" style="text;html=1;align=center;verticalAlign=middle;whiteSpace=wrap;rounded=0;rotation=0;" vertex="1" parent="1">
          <mxGeometry x="350" y="360" width="60" height="30" as="geometry" />
        </mxCell>
        <mxCell id="OFsOXVbewKaNGLtt7Mi5-37" style="edgeStyle=orthogonalEdgeStyle;rounded=0;orthogonalLoop=1;jettySize=auto;html=1;endArrow=none;endFill=0;dashed=1;startArrow=classic;startFill=0;entryX=0.575;entryY=0.988;entryDx=0;entryDy=0;entryPerimeter=0;" edge="1" parent="1" source="OFsOXVbewKaNGLtt7Mi5-18" target="OFsOXVbewKaNGLtt7Mi5-20">
          <mxGeometry relative="1" as="geometry">
            <mxPoint x="510" y="390" as="sourcePoint" />
            <mxPoint x="700" y="300" as="targetPoint" />
          </mxGeometry>
        </mxCell>
        <mxCell id="OFsOXVbewKaNGLtt7Mi5-38" style="edgeStyle=orthogonalEdgeStyle;rounded=0;orthogonalLoop=1;jettySize=auto;html=1;endArrow=none;endFill=0;dashed=1;startArrow=classic;startFill=0;" edge="1" parent="1" source="OFsOXVbewKaNGLtt7Mi5-18" target="OFsOXVbewKaNGLtt7Mi5-19">
          <mxGeometry relative="1" as="geometry">
            <mxPoint x="390" y="551" as="sourcePoint" />
            <mxPoint x="495" y="460" as="targetPoint" />
          </mxGeometry>
        </mxCell>
        <mxCell id="OFsOXVbewKaNGLtt7Mi5-39" value="&amp;lt;&amp;lt;inclui&amp;gt;&amp;gt;" style="text;html=1;align=center;verticalAlign=middle;whiteSpace=wrap;rounded=0;rotation=0;" vertex="1" parent="1">
          <mxGeometry x="570" y="360" width="60" height="30" as="geometry" />
        </mxCell>
        <mxCell id="OFsOXVbewKaNGLtt7Mi5-40" value="&amp;lt;&amp;lt;inclui&amp;gt;&amp;gt;" style="text;html=1;align=center;verticalAlign=middle;whiteSpace=wrap;rounded=0;rotation=0;" vertex="1" parent="1">
          <mxGeometry x="570" y="390" width="60" height="30" as="geometry" />
        </mxCell>
        <mxCell id="OFsOXVbewKaNGLtt7Mi5-41" value="&lt;font style=&quot;font-size: 34px;&quot;&gt;Sistema&lt;/font&gt;" style="text;html=1;align=center;verticalAlign=middle;resizable=0;points=[];autosize=1;strokeColor=none;fillColor=none;" vertex="1" parent="1">
          <mxGeometry x="390" y="110" width="140" height="50" as="geometry" />
        </mxCell>
        <mxCell id="OFsOXVbewKaNGLtt7Mi5-45" style="edgeStyle=orthogonalEdgeStyle;rounded=0;orthogonalLoop=1;jettySize=auto;html=1;endArrow=none;endFill=0;exitX=0.5;exitY=1;exitDx=0;exitDy=0;dashed=1;startArrow=classic;startFill=0;" edge="1" parent="1" source="OFsOXVbewKaNGLtt7Mi5-16" target="OFsOXVbewKaNGLtt7Mi5-21">
          <mxGeometry relative="1" as="geometry">
            <mxPoint x="223.5" y="530" as="sourcePoint" />
            <mxPoint x="413.5" y="440" as="targetPoint" />
          </mxGeometry>
        </mxCell>
        <mxCell id="OFsOXVbewKaNGLtt7Mi5-46" value="&amp;lt;&amp;lt;inclui&amp;gt;&amp;gt;" style="text;html=1;align=center;verticalAlign=middle;whiteSpace=wrap;rounded=0;rotation=0;" vertex="1" parent="1">
          <mxGeometry x="290" y="490" width="60" height="30" as="geometry" />
        </mxCell>
      </root>
    </mxGraphModel>
  </diagram>
</mxfile>
